<svg width="26" height="26" viewBox="0 0 26 26" fill="none" xmlns="http://www.w3.org/2000/svg">
<rect width="26" height="26" rx="4" fill="#DE7840"/>
<g clip-path="url(#clip0)">
<path d="M8.7539 13.5139C8.39632 14.2168 8.80232 14.5528 9.72865 15.1268C10.5162 15.6133 11.6041 15.7913 12.3029 15.8624C12.0165 16.1378 13.329 14.8754 9.54899 18.5113C8.74749 19.2796 10.0378 20.5122 10.8387 19.7602L13.007 17.669C13.8371 18.4676 14.6327 19.2329 15.1752 19.7632C15.9767 20.518 17.2665 19.2959 16.4737 18.5142C16.4142 18.4577 13.5355 15.6962 13.7111 15.8653C14.4187 15.7942 15.4902 15.6058 16.2684 15.1298L16.2678 15.1292C17.1942 14.5523 17.6002 14.2168 17.2478 13.5139C17.0349 13.1149 16.4609 12.7813 15.6967 13.3582C15.6967 13.3582 14.6648 14.1486 13.0006 14.1486C11.3357 14.1486 10.3044 13.3582 10.3044 13.3582C9.54082 12.7783 8.96449 13.1149 8.7539 13.5139Z" fill="white"/>
<path d="M13.0025 13.0828C15.0313 13.0828 16.688 11.4973 16.688 9.5455C16.688 7.5855 15.0313 6 13.0025 6C10.9731 6 9.31641 7.5855 9.31641 9.5455C9.31641 11.4973 10.9731 13.0828 13.0025 13.0828ZM13.0025 7.79608C13.9994 7.79608 14.8126 8.57833 14.8126 9.5455C14.8126 10.5045 13.9994 11.2868 13.0025 11.2868C12.0056 11.2868 11.1924 10.5045 11.1924 9.5455C11.1918 8.57775 12.005 7.79608 13.0025 7.79608Z" fill="white"/>
</g>
<defs>
<clipPath id="clip0">
<rect width="14" height="14" fill="white" transform="translate(6 6)"/>
</clipPath>
</defs>
</svg>
