<svg width="13" height="11" viewBox="0 0 13 11" fill="none" xmlns="http://www.w3.org/2000/svg">
<path d="M13 1.30115C12.5219 1.52275 12.0074 1.67172 11.4678 1.73927C12.0192 1.39506 12.4419 0.851257 12.6409 0.201851C12.1252 0.521072 11.5547 0.752267 10.9466 0.876247C10.4602 0.336876 9.76728 0 8.99983 0C7.52781 0 6.3335 1.24247 6.3335 2.77618C6.3335 2.99415 6.35679 3.20624 6.40255 3.40954C4.18629 3.29362 2.22039 2.18763 0.905708 0.507853C0.675862 0.918084 0.544522 1.39434 0.544522 1.90364C0.544522 2.86646 1.01511 3.71772 1.73064 4.21461C1.29289 4.19994 0.882415 4.07588 0.521981 3.86677V3.902C0.521981 5.24789 1.44129 6.37 2.6616 6.62538C2.43791 6.6885 2.20258 6.723 1.95906 6.723C1.78737 6.723 1.62049 6.70615 1.45767 6.6731C1.79691 7.77683 2.78197 8.57964 3.94961 8.60173C3.03646 9.3473 1.88655 9.79059 0.636866 9.79059C0.421371 9.79059 0.209333 9.77737 0 9.75173C1.18131 10.5399 2.58225 11 4.08914 11C8.99502 11 11.6778 6.76709 11.6778 3.09774L11.6703 2.73813C12.1901 2.34765 12.6423 1.8589 13 1.30115Z" fill="white"/>
</svg>
