<svg width="26" height="26" viewBox="0 0 26 26" fill="none" xmlns="http://www.w3.org/2000/svg">
<rect width="26" height="26" rx="4" fill="#4F729A"/>
<g clip-path="url(#clip0)">
<path d="M17.6171 13.5996C17.3907 13.3138 17.4555 13.1866 17.6171 12.9311C17.62 12.9282 19.4884 10.3464 19.6809 9.47079L19.6821 9.47021C19.7777 9.15113 19.6821 8.91663 19.2195 8.91663H17.6888C17.2992 8.91663 17.1195 9.11788 17.0232 9.34304C17.0232 9.34304 16.2439 11.2085 15.1414 12.4178C14.7856 12.7672 14.6211 12.8792 14.4268 12.8792C14.3312 12.8792 14.1824 12.7672 14.1824 12.4481V9.47021C14.1824 9.08754 14.0733 8.91663 13.7507 8.91663H11.3439C11.0995 8.91663 10.9542 9.09513 10.9542 9.26138C10.9542 9.62421 11.5055 9.70763 11.5627 10.7285V12.9434C11.5627 13.4287 11.4746 13.518 11.2792 13.518C10.7588 13.518 9.49592 11.6449 8.7475 9.50113C8.59642 9.08521 8.44883 8.91721 8.05625 8.91721H6.525C6.08808 8.91721 6 9.11846 6 9.34363C6 9.74146 6.52033 11.7195 8.41967 14.3329C9.6855 16.1167 11.4682 17.0833 13.0898 17.0833C14.0646 17.0833 14.1836 16.8686 14.1836 16.4994C14.1836 14.7949 14.0955 14.6339 14.5837 14.6339C14.8101 14.6339 15.1997 14.7459 16.1097 15.6063C17.1498 16.6265 17.3208 17.0833 17.9029 17.0833H19.4336C19.8699 17.0833 20.091 16.8686 19.9638 16.4451C19.6727 15.5544 17.7058 13.7221 17.6171 13.5996Z" fill="white"/>
</g>
<defs>
<clipPath id="clip0">
<rect width="14" height="14" fill="white" transform="translate(6 6)"/>
</clipPath>
</defs>
</svg>
