<svg width="12" height="12" viewBox="0 0 12 12" fill="none" xmlns="http://www.w3.org/2000/svg">
<path d="M6 0C2.68624 0 0 2.68611 0 6C0 9.31363 2.68624 12 6 12C9.31389 12 12 9.31363 12 6C12 2.68611 9.31389 0 6 0ZM7.01781 10.102C7.01781 10.1998 6.93844 10.2792 6.84052 10.2792H5.1596C5.06181 10.2792 4.98244 10.1998 4.98244 10.102V8.54756C4.98244 8.44964 5.06181 8.37027 5.1596 8.37027H6.84052C6.93844 8.37027 7.01781 8.44964 7.01781 8.54756V10.102ZM7.02122 7.29063C7.01857 7.38678 6.93996 7.463 6.84418 7.463H5.1562C5.06017 7.463 4.98156 7.38678 4.97903 7.29088L4.83013 1.90288C4.82875 1.85505 4.84692 1.80874 4.88023 1.77442C4.91367 1.7401 4.95935 1.72067 5.0073 1.72067H6.99245C7.0404 1.72067 7.08608 1.73997 7.11952 1.77442C7.15296 1.80862 7.17088 1.85505 7.16961 1.90288L7.02122 7.29063Z" fill="#E16060"/>
</svg>
